<svg width="240" height="48" viewBox="0 0 240 48" fill="#3C3C43" xmlns="http://www.w3.org/2000/svg">
<path fill-rule="evenodd" clip-rule="evenodd" d="M7.72224 47.8237C7.2755 47.7799 6.8307 47.7181 6.38892 47.6386C6.06446 47.5805 5.76104 47.4379 5.50921 47.2252C5.25739 47.0125 5.06605 46.7372 4.95446 46.427C4.84287 46.1168 4.81497 45.7827 4.87356 45.4584C4.93216 45.134 5.07519 44.8308 5.28824 44.5792C6.31452 43.3693 7.01535 41.9178 7.32449 40.3617C7.38203 40.074 7.26946 39.5687 6.6891 39.0033C2.56157 34.9884 0 29.5425 0 23.5138C0 10.9311 11.0768 1 24.39 1C37.7031 1 48.7799 10.9311 48.7799 23.5138C48.7799 36.0965 37.7031 46.0276 24.39 46.0276C22.3062 46.0276 20.2799 45.785 18.3438 45.3297C15.1789 47.3186 11.4415 48.1962 7.72224 47.8237ZM26.0073 37.1273C25.9152 37.2256 25.7937 37.2748 25.643 37.2748C25.4922 37.2748 25.3666 37.2256 25.2661 37.1273C25.1739 37.0372 25.1153 36.9185 25.0902 36.771C24.9143 35.4768 24.7216 34.3915 24.5123 33.515C24.3029 32.6387 24.0265 31.9261 23.6831 31.3772C23.3397 30.8203 22.8832 30.3779 22.3136 30.0503C21.7525 29.7227 21.028 29.4606 20.1401 29.264C19.2523 29.0592 18.1593 28.8749 16.8611 28.7111C16.7019 28.6947 16.5721 28.6373 16.4716 28.539C16.3711 28.4407 16.3208 28.3179 16.3208 28.1705C16.3208 28.023 16.3711 27.9002 16.4716 27.8019C16.5721 27.7036 16.7019 27.6463 16.8611 27.6298C18.1677 27.4906 19.2649 27.3309 20.1527 27.1507C21.0405 26.9623 21.7692 26.7002 22.3388 26.3644C22.9083 26.0286 23.3648 25.5781 23.7082 25.0129C24.06 24.4477 24.3364 23.7228 24.5374 22.8382C24.7468 21.9536 24.931 20.8601 25.0902 19.5578C25.1153 19.4185 25.1739 19.3038 25.2661 19.2137C25.3666 19.1154 25.4922 19.0663 25.643 19.0663C25.7937 19.0663 25.9152 19.1154 26.0073 19.2137C26.1078 19.3038 26.1706 19.4185 26.1958 19.5578C26.3633 20.8601 26.5475 21.9536 26.7486 22.8382C26.9579 23.7228 27.2343 24.4477 27.5777 25.0129C27.9211 25.5781 28.3776 26.0286 28.9472 26.3644C29.5167 26.7002 30.2454 26.9623 31.1333 27.1507C32.0294 27.3309 33.1267 27.4906 34.4249 27.6298C34.584 27.6463 34.7096 27.7036 34.8017 27.8019C34.9022 27.9002 34.9525 28.023 34.9525 28.1705C34.9525 28.3179 34.9022 28.4407 34.8017 28.539C34.7096 28.6373 34.584 28.6947 34.4249 28.7111C33.1267 28.8504 32.0294 29.0141 31.1333 29.2025C30.2454 29.3828 29.5167 29.6408 28.9472 29.9766C28.3776 30.3125 27.9211 30.7629 27.5777 31.328C27.2343 31.8934 26.9579 32.6182 26.7486 33.5027C26.5475 34.3875 26.3633 35.4768 26.1958 36.771C26.1706 36.9185 26.1078 37.0372 26.0073 37.1273ZM17.841 24.288C17.774 24.3535 17.6903 24.3863 17.5897 24.3863C17.372 24.3863 17.2464 24.2716 17.2129 24.0423C17.1207 23.2641 17.0202 22.658 16.9113 22.2239C16.8024 21.7816 16.6349 21.4499 16.4088 21.2287C16.1826 21.0075 15.8351 20.8396 15.366 20.725C14.9053 20.6103 14.273 20.4833 13.4689 20.3441C13.2177 20.3113 13.092 20.1925 13.092 19.9878C13.092 19.7912 13.2009 19.6724 13.4187 19.6315C14.2395 19.484 14.8802 19.353 15.3409 19.2383C15.8099 19.1154 16.1617 18.9475 16.3962 18.7346C16.6307 18.5134 16.8024 18.1858 16.9113 17.7517C17.0202 17.3175 17.1207 16.7155 17.2129 15.9456C17.2464 15.7162 17.372 15.6015 17.5897 15.6015C17.8075 15.6015 17.929 15.7121 17.9541 15.9333C18.063 16.7196 18.1719 17.338 18.2808 17.7885C18.3896 18.2308 18.5571 18.5667 18.7833 18.796C19.0178 19.0172 19.3654 19.1851 19.8261 19.2997C20.2951 19.4062 20.94 19.5168 21.7608 19.6315C21.853 19.6479 21.9284 19.6888 21.987 19.7543C22.054 19.8117 22.0875 19.8895 22.0875 19.9878C22.0875 20.1925 21.9786 20.3113 21.7608 20.3441C20.94 20.4997 20.2993 20.639 19.8386 20.7618C19.378 20.8847 19.0304 21.0567 18.7959 21.2778C18.5613 21.4908 18.3896 21.8143 18.2808 22.2485C18.1719 22.6744 18.063 23.2764 17.9541 24.0546C17.9457 24.1447 17.908 24.2225 17.841 24.288ZM23.6202 16.2036C23.5867 16.351 23.503 16.4247 23.369 16.4247C23.2182 16.4247 23.1345 16.351 23.1177 16.2036C23.0004 15.5892 22.8915 15.1388 22.791 14.8521C22.6989 14.5572 22.5021 14.3483 22.2006 14.2255C21.9074 14.1026 21.4133 13.9838 20.7181 13.8692C20.5673 13.8364 20.4919 13.7545 20.4919 13.6234C20.4919 13.476 20.5673 13.3941 20.7181 13.3777C21.4133 13.2548 21.9074 13.1361 22.2006 13.0214C22.5021 12.8985 22.6989 12.6938 22.791 12.4071C22.8915 12.1122 23.0004 11.6535 23.1177 11.031C23.1345 10.8836 23.2182 10.8099 23.369 10.8099C23.503 10.8099 23.5867 10.8836 23.6202 11.031C23.7291 11.6535 23.8338 12.1122 23.9343 12.4071C24.0348 12.6938 24.2317 12.8985 24.5248 13.0214C24.818 13.1361 25.3121 13.2548 26.0073 13.3777C26.1581 13.3941 26.2335 13.476 26.2335 13.6234C26.2335 13.7545 26.1581 13.8364 26.0073 13.8692C25.3121 13.9838 24.818 14.1026 24.5248 14.2255C24.2317 14.3483 24.0348 14.5572 23.9343 14.8521C23.8338 15.1388 23.7291 15.5892 23.6202 16.2036Z"/>
<path d="M66.5693 38.5231V13.3076H76.4394C78.2405 13.3076 79.8615 13.6078 81.3024 14.2082C82.7673 14.8085 84.016 15.6731 85.0487 16.8018C86.0813 17.9305 86.8738 19.2633 87.4261 20.8002C87.9785 22.3372 88.2546 24.0422 88.2546 25.9154C88.2546 27.7885 87.9785 29.5056 87.4261 31.0665C86.8738 32.6035 86.0813 33.9363 85.0487 35.065C84.0401 36.1696 82.8033 37.0222 81.3384 37.6225C79.8735 38.2229 78.2405 38.5231 76.4394 38.5231H66.5693ZM70.4597 35.173L70.3517 34.7768H76.2593C77.5321 34.7768 78.6608 34.5727 79.6454 34.1644C80.654 33.7562 81.4945 33.1798 82.1669 32.4354C82.8633 31.6669 83.3917 30.7303 83.7519 29.6256C84.1121 28.521 84.2922 27.2842 84.2922 25.9154C84.2922 24.5465 84.1121 23.3218 83.7519 22.2411C83.3917 21.1364 82.8633 20.1998 82.1669 19.4314C81.4705 18.6629 80.63 18.0745 79.6454 17.6663C78.6608 17.258 77.5321 17.0539 76.2593 17.0539H70.2436L70.4597 16.7297V35.173Z"/>
<path d="M100.72 38.8833C98.8708 38.8833 97.2138 38.4631 95.7489 37.6225C94.308 36.758 93.1673 35.5933 92.3268 34.1284C91.4863 32.6395 91.0661 30.9464 91.0661 29.0493C91.0661 27.1521 91.4863 25.4711 92.3268 24.0062C93.1673 22.5173 94.308 21.3526 95.7489 20.512C97.2138 19.6475 98.8708 19.2152 100.72 19.2152C102.545 19.2152 104.178 19.6475 105.619 20.512C107.084 21.3526 108.237 22.5173 109.077 24.0062C109.918 25.4711 110.338 27.1521 110.338 29.0493C110.338 30.9464 109.918 32.6395 109.077 34.1284C108.237 35.5933 107.084 36.758 105.619 37.6225C104.178 38.4631 102.545 38.8833 100.72 38.8833ZM100.72 35.4972C101.849 35.4972 102.857 35.2211 103.746 34.6687C104.634 34.0924 105.331 33.3239 105.835 32.3633C106.339 31.3787 106.58 30.274 106.556 29.0493C106.58 27.8005 106.339 26.6958 105.835 25.7352C105.331 24.7506 104.634 23.9822 103.746 23.4298C102.857 22.8775 101.849 22.6013 100.72 22.6013C99.5913 22.6013 98.5707 22.8895 97.6581 23.4659C96.7696 24.0182 96.0731 24.7867 95.5688 25.7713C95.0645 26.7319 94.8244 27.8245 94.8484 29.0493C94.8244 30.274 95.0645 31.3787 95.5688 32.3633C96.0731 33.3239 96.7696 34.0924 97.6581 34.6687C98.5707 35.2211 99.5913 35.4972 100.72 35.4972Z"/>
<path d="M122.054 38.8833C120.3 38.8833 118.727 38.451 117.335 37.5865C115.966 36.722 114.873 35.5453 114.057 34.0563C113.264 32.5674 112.868 30.8984 112.868 29.0493C112.868 27.2001 113.264 25.5311 114.057 24.0422C114.873 22.5533 115.966 21.3766 117.335 20.512C118.727 19.6475 120.3 19.2152 122.054 19.2152C123.735 19.2152 125.259 19.5635 126.628 20.2599C128.021 20.9323 129.078 21.8569 129.798 23.0336L127.745 25.5551C127.361 25.0028 126.868 24.4985 126.268 24.0422C125.668 23.5859 125.031 23.2257 124.359 22.9615C123.687 22.6974 123.038 22.5653 122.414 22.5653C121.261 22.5653 120.228 22.8535 119.316 23.4298C118.427 23.9822 117.719 24.7506 117.191 25.7352C116.662 26.7198 116.398 27.8245 116.398 29.0493C116.398 30.274 116.674 31.3787 117.227 32.3633C117.779 33.3239 118.511 34.0924 119.424 34.6687C120.336 35.2451 121.345 35.5333 122.45 35.5333C123.098 35.5333 123.723 35.4252 124.323 35.2091C124.947 34.9929 125.548 34.6687 126.124 34.2365C126.7 33.8042 127.241 33.2759 127.745 32.6515L129.798 35.173C129.03 36.2537 127.925 37.1422 126.484 37.8387C125.067 38.5351 123.59 38.8833 122.054 38.8833Z"/>
<path d="M139.566 38.8833C138.221 38.8833 137.044 38.5711 136.036 37.9467C135.051 37.3224 134.283 36.4458 133.73 35.3171C133.202 34.1884 132.938 32.8436 132.938 31.2826V19.6115H136.648V30.274C136.648 31.3787 136.816 32.3393 137.152 33.1558C137.513 33.9483 138.017 34.5607 138.665 34.9929C139.338 35.4252 140.142 35.6413 141.079 35.6413C141.775 35.6413 142.412 35.5333 142.988 35.3171C143.564 35.077 144.057 34.7528 144.465 34.3445C144.897 33.9363 145.233 33.444 145.473 32.8676C145.714 32.2913 145.834 31.6669 145.834 30.9945V19.6115H149.544V38.5231H145.834V34.5607L146.482 34.1284C146.194 35.0169 145.702 35.8214 145.005 36.5419C144.333 37.2623 143.528 37.8387 142.592 38.2709C141.655 38.6792 140.647 38.8833 139.566 38.8833Z"/>
<path d="M154.316 38.5231V19.6115H158.062V23.646L157.378 24.0782C157.57 23.4538 157.87 22.8535 158.278 22.2771C158.71 21.7008 159.227 21.1965 159.827 20.7642C160.452 20.3079 161.112 19.9477 161.808 19.6835C162.529 19.4194 163.261 19.2873 164.006 19.2873C165.086 19.2873 166.035 19.4674 166.851 19.8276C167.668 20.1878 168.34 20.7282 168.869 21.4486C169.397 22.1691 169.781 23.0696 170.021 24.1503L169.445 24.0062L169.697 23.3938C169.961 22.8415 170.322 22.3252 170.778 21.8449C171.258 21.3405 171.799 20.8963 172.399 20.512C172.999 20.1278 173.636 19.8276 174.308 19.6115C174.98 19.3954 175.641 19.2873 176.289 19.2873C177.706 19.2873 178.871 19.5755 179.783 20.1518C180.72 20.7282 181.416 21.6047 181.873 22.7814C182.353 23.9582 182.593 25.4231 182.593 27.1761V38.5231H178.847V27.3923C178.847 26.3116 178.703 25.4351 178.415 24.7626C178.15 24.0662 177.742 23.5499 177.19 23.2137C176.637 22.8775 175.929 22.7094 175.065 22.7094C174.392 22.7094 173.756 22.8295 173.155 23.0696C172.579 23.2857 172.075 23.5979 171.642 24.0062C171.21 24.4144 170.874 24.8947 170.634 25.4471C170.394 25.9754 170.274 26.5638 170.274 27.2121V38.5231H166.527V27.3202C166.527 26.3356 166.383 25.5071 166.095 24.8347C165.807 24.1383 165.387 23.6099 164.834 23.2497C164.282 22.8895 163.609 22.7094 162.817 22.7094C162.145 22.7094 161.52 22.8295 160.944 23.0696C160.368 23.2857 159.863 23.5979 159.431 24.0062C158.999 24.3904 158.662 24.8587 158.422 25.411C158.182 25.9394 158.062 26.5157 158.062 27.1401V38.5231H154.316Z"/>
<path d="M194.477 38.8833C192.916 38.8833 191.487 38.451 190.19 37.5865C188.917 36.722 187.897 35.5453 187.128 34.0563C186.36 32.5674 185.976 30.8864 185.976 29.0133C185.976 27.1161 186.36 25.4351 187.128 23.9702C187.921 22.4812 188.977 21.3165 190.298 20.476C191.643 19.6355 193.144 19.2152 194.801 19.2152C195.786 19.2152 196.686 19.3593 197.503 19.6475C198.319 19.9357 199.028 20.3439 199.628 20.8723C200.252 21.3766 200.757 21.9649 201.141 22.6373C201.549 23.3098 201.801 24.0302 201.897 24.7987L201.069 24.5105V19.6115H204.815V38.5231H201.069V34.0203L201.933 33.7682C201.789 34.4166 201.489 35.053 201.033 35.6773C200.601 36.2777 200.036 36.818 199.34 37.2983C198.667 37.7786 197.911 38.1629 197.07 38.451C196.254 38.7392 195.389 38.8833 194.477 38.8833ZM195.449 35.4612C196.578 35.4612 197.575 35.185 198.439 34.6327C199.304 34.0804 199.976 33.3239 200.456 32.3633C200.961 31.3787 201.213 30.262 201.213 29.0133C201.213 27.7885 200.961 26.6958 200.456 25.7352C199.976 24.7747 199.304 24.0182 198.439 23.4659C197.575 22.9135 196.578 22.6373 195.449 22.6373C194.345 22.6373 193.36 22.9135 192.496 23.4659C191.655 24.0182 190.983 24.7747 190.478 25.7352C189.998 26.6958 189.758 27.7885 189.758 29.0133C189.758 30.262 189.998 31.3787 190.478 32.3633C190.983 33.3239 191.655 34.0804 192.496 34.6327C193.36 35.185 194.345 35.4612 195.449 35.4612Z"/>
<path d="M211.977 38.5231V14.7845H215.687V38.5231H211.977ZM208.05 23.2137V19.6115H220.082V23.2137H208.05Z"/>
<path d="M231.75 38.8833C229.804 38.8833 228.075 38.4751 226.562 37.6586C225.073 36.818 223.897 35.6773 223.032 34.2365C222.192 32.7956 221.771 31.1386 221.771 29.2654C221.771 27.7765 222.012 26.4197 222.492 25.1949C222.972 23.9702 223.633 22.9135 224.473 22.025C225.338 21.1124 226.358 20.416 227.535 19.9357C228.736 19.4314 230.032 19.1792 231.425 19.1792C232.65 19.1792 233.791 19.4194 234.847 19.8997C235.904 20.3559 236.817 20.9923 237.585 21.8088C238.378 22.6253 238.978 23.5979 239.386 24.7266C239.818 25.8313 240.023 27.044 239.999 28.3649L239.963 29.9498H224.509L223.681 26.996H236.757L236.216 27.6084V26.7439C236.144 25.9514 235.88 25.2429 235.424 24.6186C234.968 23.9942 234.391 23.5019 233.695 23.1417C232.998 22.7814 232.242 22.6013 231.425 22.6013C230.129 22.6013 229.036 22.8535 228.147 23.3578C227.259 23.8381 226.586 24.5585 226.13 25.5191C225.674 26.4557 225.446 27.6204 225.446 29.0133C225.446 30.3341 225.722 31.4868 226.274 32.4714C226.827 33.432 227.607 34.1764 228.616 34.7047C229.624 35.2331 230.789 35.4972 232.11 35.4972C233.046 35.4972 233.911 35.3411 234.703 35.0289C235.52 34.7168 236.396 34.1524 237.333 33.3359L239.206 35.9655C238.63 36.5419 237.921 37.0462 237.081 37.4785C236.264 37.9107 235.388 38.2589 234.451 38.5231C233.539 38.7632 232.638 38.8833 231.75 38.8833Z"/>
</svg>
